<?xml version="1.0" encoding="UTF-8" standalone="no" ?>
<!DOCTYPE svg PUBLIC "-//W3C//DTD SVG 1.1//EN" "http://www.w3.org/Graphics/SVG/1.1/DTD/svg11.dtd">
<svg xmlns="http://www.w3.org/2000/svg" xmlns:xlink="http://www.w3.org/1999/xlink" version="1.1" width="1000" height="1000" viewBox="0 0 1000 1000" xml:space="preserve">
<desc>Created with Fabric.js 5.2.4</desc>
<defs>
</defs>
<rect x="0" y="0" width="100%" height="100%" fill="transparent"></rect>
<g transform="matrix(1 0 0 1 500 500)" id="ab07f59f-21f6-4f18-b6c1-fca22be04a66"  >
<rect style="stroke: none; stroke-width: 1; stroke-dasharray: none; stroke-linecap: butt; stroke-dashoffset: 0; stroke-linejoin: miter; stroke-miterlimit: 4; fill: rgb(0,0,0); fill-opacity: 0; fill-rule: nonzero; opacity: 1;" vector-effect="non-scaling-stroke"  x="-500" y="-500" rx="0" ry="0" width="1000" height="1000" />
</g>
<g transform="matrix(Infinity NaN NaN Infinity 0 0)" id="3327dcc3-0b39-419e-97f2-7f3e5d466a71"  >
</g>
<g transform="matrix(1 0 0 1 410.81 566.99)"  >
<path style="stroke: none; stroke-width: 1; stroke-dasharray: none; stroke-linecap: butt; stroke-dashoffset: 0; stroke-linejoin: miter; stroke-miterlimit: 4; fill: rgb(41,21,7); fill-rule: nonzero; opacity: 1;" vector-effect="non-scaling-stroke"  transform=" translate(-117.32, -29.09)" d="M 120.65 25.886 L 119.61 29.0067 L 118.57 32.9596 C 118.57 32.9596 115.865 34.416 115.657 33.3757 C 115.449 32.3355 116.697 32.1274 116.697 32.1274 L 117.113 30.047 L 113.993 24.4297 L 120.65 25.886 Z" stroke-linecap="round" />
</g>
<g transform="matrix(1 0 0 1 410.81 566.99)"  >
<path style="stroke: none; stroke-width: 1; stroke-dasharray: none; stroke-linecap: butt; stroke-dashoffset: 0; stroke-linejoin: miter; stroke-miterlimit: 4; fill: rgb(41,21,7); fill-rule: nonzero; opacity: 1;" vector-effect="non-scaling-stroke"  transform=" translate(-117.32, -29.09)" d="M 120.65 25.886 L 119.61 29.0067 L 118.57 32.9596 C 118.57 32.9596 115.865 34.416 115.657 33.3757 C 115.449 32.3355 116.697 32.1274 116.697 32.1274 L 117.113 30.047 L 113.993 24.4297 L 120.65 25.886 Z" stroke-linecap="round" />
</g>
<g transform="matrix(1 0 0 1 392.43 567.07)"  >
<path style="stroke: none; stroke-width: 1; stroke-dasharray: none; stroke-linecap: butt; stroke-dashoffset: 0; stroke-linejoin: miter; stroke-miterlimit: 4; fill: rgb(41,21,7); fill-rule: nonzero; opacity: 1;" vector-effect="non-scaling-stroke"  transform=" translate(-98.93, -29.17)" d="M 102.966 24.6379 L 101.094 33.1679 C 101.094 33.1679 99.6373 34.0001 98.5971 33.584 C 97.5568 33.1679 99.2212 32.1276 99.2212 32.1276 C 99.2212 32.1276 98.5971 26.9265 95.4764 26.3023 C 92.3557 25.6782 102.966 24.6379 102.966 24.6379 Z" stroke-linecap="round" />
</g>
<g transform="matrix(1 0 0 1 392.43 567.07)"  >
<path style="stroke: none; stroke-width: 1; stroke-dasharray: none; stroke-linecap: butt; stroke-dashoffset: 0; stroke-linejoin: miter; stroke-miterlimit: 4; fill: rgb(41,21,7); fill-rule: nonzero; opacity: 1;" vector-effect="non-scaling-stroke"  transform=" translate(-98.93, -29.17)" d="M 102.966 24.6379 L 101.094 33.1679 C 101.094 33.1679 99.6373 34.0001 98.5971 33.584 C 97.5568 33.1679 99.2212 32.1276 99.2212 32.1276 C 99.2212 32.1276 98.5971 26.9265 95.4764 26.3023 C 92.3557 25.6782 102.966 24.6379 102.966 24.6379 Z" stroke-linecap="round" />
</g>
<g transform="matrix(28.86 0 0 28.86 500 470.4)"  >
<g style="" vector-effect="non-scaling-stroke"   >
		<g transform="matrix(0.63 0 0 0.63 6.54 7.45)"  >
<path style="stroke: none; stroke-width: 1; stroke-dasharray: none; stroke-linecap: butt; stroke-dashoffset: 0; stroke-linejoin: miter; stroke-miterlimit: 4; fill: rgb(255,255,255); fill-rule: nonzero; opacity: 1;" vector-effect="non-scaling-stroke"  transform=" translate(-117.32, -29.09)" d="M 120.65 25.886 L 119.61 29.0067 L 118.57 32.9596 C 118.57 32.9596 115.865 34.416 115.657 33.3757 C 115.449 32.3355 116.697 32.1274 116.697 32.1274 L 117.113 30.047 L 113.993 24.4297 L 120.65 25.886 Z" stroke-linecap="round" />
</g>
		<g transform="matrix(0.63 0 0 0.63 -4.96 7.5)"  >
<path style="stroke: none; stroke-width: 1; stroke-dasharray: none; stroke-linecap: butt; stroke-dashoffset: 0; stroke-linejoin: miter; stroke-miterlimit: 4; fill: rgb(255,255,255); fill-rule: nonzero; opacity: 1;" vector-effect="non-scaling-stroke"  transform=" translate(-98.93, -29.17)" d="M 102.966 24.6379 L 101.094 33.1679 C 101.094 33.1679 99.6373 34.0001 98.5971 33.584 C 97.5568 33.1679 99.2212 32.1276 99.2212 32.1276 C 99.2212 32.1276 98.5971 26.9265 95.4764 26.3023 C 92.3557 25.6782 102.966 24.6379 102.966 24.6379 Z" stroke-linecap="round" />
</g>
		<g transform="matrix(0.63 0 0 0.63 -4.96 7.5)"  >
<path style="stroke: none; stroke-width: 1; stroke-dasharray: none; stroke-linecap: butt; stroke-dashoffset: 0; stroke-linejoin: miter; stroke-miterlimit: 4; fill: rgb(255,255,255); fill-rule: nonzero; opacity: 1;" vector-effect="non-scaling-stroke"  transform=" translate(-98.93, -29.17)" d="M 102.966 24.6379 L 101.094 33.1679 C 101.094 33.1679 99.6373 34.0001 98.5971 33.584 C 97.5568 33.1679 99.2212 32.1276 99.2212 32.1276 C 99.2212 32.1276 98.5971 26.9265 95.4764 26.3023 C 92.3557 25.6782 102.966 24.6379 102.966 24.6379 Z" stroke-linecap="round" />
</g>
		<g transform="matrix(0.63 0 0 0.63 0 0)"  >
<path style="stroke: none; stroke-width: 1; stroke-dasharray: none; stroke-linecap: butt; stroke-dashoffset: 0; stroke-linejoin: miter; stroke-miterlimit: 4; fill: rgb(255,255,255); fill-rule: nonzero; opacity: 1;" vector-effect="non-scaling-stroke"  transform=" translate(-106.86, -17.17)" d="M 90.6913 14.6517 C 90.6913 14.6517 94.8522 16.108 98.5971 15.2758 C 98.5971 15.2758 105.879 14.2356 106.503 14.0275 C 107.127 13.8195 114.201 13.4034 117.945 14.0275 C 117.945 14.0275 128.348 5.91369 122.523 2.37689 C 122.523 2.37689 120.026 3.62517 119.402 2.79298 C 119.168 2.48091 119.285 2.08107 119.522 1.70317 C 119.791 1.29255 120.155 0.953492 120.584 0.715303 C 121.013 0.477114 121.494 0.346958 121.984 0.336097 C 124.158 0.254703 128.054 1.03591 126.286 8.14394 C 125.782 10.1045 124.853 11.9304 123.566 13.4926 C 122.618 14.6606 121.638 16.277 122.106 17.5643 C 122.939 19.8529 123.147 23.3897 123.147 23.3897 L 126.059 27.7586 C 126.059 27.7586 127.724 33.1679 127.724 33.3759 C 127.724 33.584 125.46 34.0253 125.019 33.584 C 124.603 33.1679 125.643 32.3357 125.643 32.3357 C 125.643 32.3357 124.811 30.6713 123.355 30.2552 C 121.898 29.8391 117.945 28.3828 117.321 27.7586 C 116.697 27.1345 103.382 23.3897 99.6373 26.9265 C 97.5358 28.9341 95.3124 30.8101 92.9798 32.5437 C 92.9798 32.5437 91.9396 34.0001 90.6913 34.0001 C 89.443 34.0001 89.235 32.1276 90.6913 31.9196 C 92.1476 31.7115 94.2281 26.7184 94.2281 26.7184 C 94.2281 26.7184 94.8522 22.9736 91.7315 22.3494 C 90.0112 22.0054 88.9863 21.9774 88.4129 22.0216 C 88.1839 22.0407 87.9534 22.0134 87.7352 21.9414 C 87.517 21.8695 87.3154 21.7543 87.1426 21.6029 C 86.7714 21.2459 86.4388 20.8507 86.1505 20.4239 C 86.0744 20.3155 86.0254 20.1905 86.0076 20.0593 C 85.9897 19.9281 86.0035 19.7945 86.0479 19.6697 C 86.325 18.9134 86.5556 18.1408 86.7384 17.3563 C 86.9464 16.3161 88.6108 15.4839 88.6108 15.4839 C 88.6108 15.4839 89.0269 12.5712 89.6511 13.4034 C 89.9709 13.8412 90.3183 14.2581 90.6913 14.6517 Z" stroke-linecap="round" />
</g>
		<g transform="matrix(0.63 0 0 0.63 0 0)"  >
<path style="stroke: none; stroke-width: 1; stroke-dasharray: none; stroke-linecap: butt; stroke-dashoffset: 0; stroke-linejoin: miter; stroke-miterlimit: 4; fill: rgb(255,255,255); fill-rule: nonzero; opacity: 1;" vector-effect="non-scaling-stroke"  transform=" translate(-106.86, -17.17)" d="M 90.6913 14.6517 C 90.6913 14.6517 94.8522 16.108 98.5971 15.2758 C 98.5971 15.2758 105.879 14.2356 106.503 14.0275 C 107.127 13.8195 114.201 13.4034 117.945 14.0275 C 117.945 14.0275 128.348 5.91369 122.523 2.37689 C 122.523 2.37689 120.026 3.62517 119.402 2.79298 C 119.168 2.48091 119.285 2.08107 119.522 1.70317 C 119.791 1.29255 120.155 0.953492 120.584 0.715303 C 121.013 0.477114 121.494 0.346958 121.984 0.336097 C 124.158 0.254703 128.054 1.03591 126.286 8.14394 C 125.782 10.1045 124.853 11.9304 123.566 13.4926 C 122.618 14.6606 121.638 16.277 122.106 17.5643 C 122.939 19.8529 123.147 23.3897 123.147 23.3897 L 126.059 27.7586 C 126.059 27.7586 127.724 33.1679 127.724 33.3759 C 127.724 33.584 125.46 34.0253 125.019 33.584 C 124.603 33.1679 125.643 32.3357 125.643 32.3357 C 125.643 32.3357 124.811 30.6713 123.355 30.2552 C 121.898 29.8391 117.945 28.3828 117.321 27.7586 C 116.697 27.1345 103.382 23.3897 99.6373 26.9265 C 97.5358 28.9341 95.3124 30.8101 92.9798 32.5437 C 92.9798 32.5437 91.9396 34.0001 90.6913 34.0001 C 89.443 34.0001 89.235 32.1276 90.6913 31.9196 C 92.1476 31.7115 94.2281 26.7184 94.2281 26.7184 C 94.2281 26.7184 94.8522 22.9736 91.7315 22.3494 C 90.0112 22.0054 88.9863 21.9774 88.4129 22.0216 C 88.1839 22.0407 87.9534 22.0134 87.7352 21.9414 C 87.517 21.8695 87.3154 21.7543 87.1426 21.6029 C 86.7714 21.2459 86.4388 20.8507 86.1505 20.4239 C 86.0744 20.3155 86.0254 20.1905 86.0076 20.0593 C 85.9897 19.9281 86.0035 19.7945 86.0479 19.6697 C 86.325 18.9134 86.5556 18.1408 86.7384 17.3563 C 86.9464 16.3161 88.6108 15.4839 88.6108 15.4839 C 88.6108 15.4839 89.0269 12.5712 89.6511 13.4034 C 89.9709 13.8412 90.3183 14.2581 90.6913 14.6517 Z" stroke-linecap="round" />
</g>
</g>
</g>
</svg>